<svg width="24" height="24" viewBox="0 0 24 24" fill="none" xmlns="http://www.w3.org/2000/svg">
<path d="M12.857 3.189H11.143C10.462 3.189 10.121 3.189 9.812 3.283C9.538 3.366 9.283 3.503 9.062 3.684C8.812 3.889 8.624 4.173 8.246 4.74L7.103 6.454C5.579 6.454 4.817 6.454 4.235 6.75C3.72325 7.01124 3.30737 7.42782 3.047 7.94C2.75 8.521 2.75 9.283 2.75 10.807V16.458C2.75 17.982 2.75 18.744 3.047 19.326C3.307 19.838 3.724 20.254 4.235 20.515C4.817 20.811 5.579 20.811 7.103 20.811H16.897C18.421 20.811 19.183 20.811 19.765 20.515C20.2767 20.2538 20.6926 19.8372 20.953 19.325C21.25 18.744 21.25 17.982 21.25 16.458V10.807C21.25 9.283 21.25 8.521 20.953 7.939C20.6925 7.42719 20.2766 7.01098 19.765 6.75C19.183 6.454 18.421 6.454 16.897 6.454L15.754 4.74C15.376 4.173 15.187 3.89 14.938 3.684C14.7165 3.50283 14.4617 3.36662 14.188 3.283C13.879 3.189 13.538 3.189 12.857 3.189Z" stroke="#4D5156" stroke-width="1.5" stroke-linecap="round" stroke-linejoin="round"/>
<path d="M15.775 13.212C15.775 13.7077 15.6773 14.1986 15.4876 14.6566C15.2979 15.1146 15.0198 15.5308 14.6693 15.8813C14.3188 16.2319 13.9026 16.5099 13.4446 16.6996C12.9866 16.8894 12.4957 16.987 12 16.987C11.5042 16.987 11.0133 16.8894 10.5553 16.6996C10.0973 16.5099 9.68119 16.2319 9.33065 15.8813C8.98011 15.5308 8.70204 15.1146 8.51233 14.6566C8.32262 14.1986 8.22498 13.7077 8.22498 13.212C8.22498 12.2108 8.6227 11.2506 9.33065 10.5427C10.0386 9.83473 10.9988 9.437 12 9.437C13.0012 9.437 13.9614 9.83473 14.6693 10.5427C15.3773 11.2506 15.775 12.2108 15.775 13.212Z" stroke="#4D5156" stroke-width="1.5" stroke-linecap="round" stroke-linejoin="round"/>
</svg>
