<svg width="24" height="24" viewBox="0 0 24 24" fill="none" xmlns="http://www.w3.org/2000/svg">
<path d="M7.227 7.227C7.36763 7.08655 7.55825 7.00766 7.757 7.00766C7.95575 7.00766 8.14637 7.08655 8.287 7.227L12 10.939L15.712 7.227C15.8534 7.09031 16.0428 7.01463 16.2395 7.01624C16.4361 7.01786 16.6243 7.09665 16.7634 7.23564C16.9025 7.37463 16.9815 7.5627 16.9833 7.75935C16.9851 7.956 16.9096 8.14548 16.773 8.287L13.061 12L16.773 15.712C16.9097 15.8534 16.9854 16.0428 16.9838 16.2395C16.9821 16.4361 16.9034 16.6243 16.7644 16.7634C16.6254 16.9025 16.4373 16.9815 16.2407 16.9833C16.044 16.9851 15.8545 16.9096 15.713 16.773L12 13.061L8.288 16.773C8.21885 16.8447 8.13612 16.9018 8.04463 16.9412C7.95315 16.9805 7.85474 17.0013 7.75516 17.0022C7.65558 17.0031 7.55681 16.9842 7.46462 16.9465C7.37243 16.9088 7.28866 16.8532 7.21821 16.7828C7.14776 16.7124 7.09203 16.6287 7.05428 16.5365C7.01652 16.4444 6.9975 16.3456 6.99832 16.2461C6.99913 16.1465 7.01978 16.048 7.05904 15.9565C7.0983 15.865 7.1554 15.7822 7.227 15.713L10.939 12L7.227 8.288C7.1573 8.21835 7.10202 8.13565 7.0643 8.04462C7.02657 7.9536 7.00716 7.85603 7.00716 7.7575C7.00716 7.65897 7.02657 7.5614 7.0643 7.47038C7.10202 7.37935 7.1573 7.29665 7.227 7.227Z" fill="#4D5156"/>
</svg>
