<svg width="176" height="26" viewBox="0 0 176 26" fill="none" xmlns="http://www.w3.org/2000/svg">
<path d="M17.0504 7.47088H13.5973C13.4988 6.90459 13.3172 6.40293 13.0526 5.96591C12.7879 5.52273 12.4586 5.14725 12.0646 4.83949C11.6707 4.53172 11.2214 4.3009 10.7166 4.14702C10.218 3.98698 9.67945 3.90696 9.10085 3.90696C8.07292 3.90696 7.16193 4.16548 6.3679 4.68253C5.57386 5.19342 4.95218 5.94436 4.50284 6.93537C4.0535 7.92022 3.82884 9.12358 3.82884 10.5455C3.82884 11.992 4.0535 13.2107 4.50284 14.2017C4.95833 15.1866 5.58002 15.9313 6.3679 16.4361C7.16193 16.9347 8.06984 17.1839 9.09162 17.1839C9.65791 17.1839 10.1873 17.1101 10.6797 16.9624C11.1783 16.8085 11.6245 16.5838 12.0185 16.2884C12.4186 15.9929 12.754 15.6297 13.0249 15.1989C13.3018 14.768 13.4927 14.2756 13.5973 13.7216L17.0504 13.7401C16.9212 14.6387 16.6411 15.482 16.2102 16.2699C15.7855 17.0578 15.2285 17.7533 14.5391 18.3565C13.8497 18.9536 13.0433 19.4214 12.12 19.7599C11.1967 20.0923 10.1719 20.2585 9.04546 20.2585C7.38352 20.2585 5.9001 19.8738 4.59517 19.1044C3.29025 18.335 2.26231 17.224 1.51136 15.7713C0.760417 14.3187 0.384943 12.5767 0.384943 10.5455C0.384943 8.50805 0.763494 6.7661 1.5206 5.3196C2.2777 3.86695 3.30871 2.75592 4.61364 1.9865C5.91856 1.21709 7.39583 0.832386 9.04546 0.832386C10.098 0.832386 11.0767 0.980113 11.9815 1.27557C12.8864 1.57102 13.6927 2.00497 14.4006 2.57741C15.1084 3.1437 15.6901 3.83925 16.1456 4.66406C16.6072 5.48272 16.9089 6.41832 17.0504 7.47088ZM25.1857 20.277C23.8007 20.277 22.6004 19.9723 21.5848 19.3629C20.5692 18.7536 19.7813 17.901 19.2212 16.8054C18.6672 15.7098 18.3902 14.4295 18.3902 12.9645C18.3902 11.4995 18.6672 10.2161 19.2212 9.11435C19.7813 8.01255 20.5692 7.15696 21.5848 6.54759C22.6004 5.93821 23.8007 5.63352 25.1857 5.63352C26.5706 5.63352 27.7709 5.93821 28.7865 6.54759C29.8022 7.15696 30.587 8.01255 31.1409 9.11435C31.7011 10.2161 31.9811 11.4995 31.9811 12.9645C31.9811 14.4295 31.7011 15.7098 31.1409 16.8054C30.587 17.901 29.8022 18.7536 28.7865 19.3629C27.7709 19.9723 26.5706 20.277 25.1857 20.277ZM25.2041 17.5994C25.9551 17.5994 26.5829 17.3932 27.0877 16.9808C27.5924 16.5623 27.9679 16.0021 28.2141 15.3004C28.4665 14.5987 28.5926 13.817 28.5926 12.9553C28.5926 12.0874 28.4665 11.3026 28.2141 10.6009C27.9679 9.89299 27.5924 9.32978 27.0877 8.91122C26.5829 8.49266 25.9551 8.28338 25.2041 8.28338C24.4347 8.28338 23.7946 8.49266 23.2837 8.91122C22.779 9.32978 22.4004 9.89299 22.148 10.6009C21.9018 11.3026 21.7787 12.0874 21.7787 12.9553C21.7787 13.817 21.9018 14.5987 22.148 15.3004C22.4004 16.0021 22.779 16.5623 23.2837 16.9808C23.7946 17.3932 24.4347 17.5994 25.2041 17.5994ZM33.778 20V5.81818H36.9726V8.22798H37.1387C37.4342 7.41548 37.9235 6.78149 38.6068 6.32599C39.29 5.86435 40.1056 5.63352 41.0535 5.63352C42.0137 5.63352 42.8232 5.86742 43.4818 6.33523C44.1466 6.79687 44.6144 7.42779 44.8852 8.22798H45.0329C45.3468 7.4401 45.8762 6.81226 46.621 6.34446C47.3719 5.8705 48.2614 5.63352 49.2893 5.63352C50.5942 5.63352 51.6591 6.04593 52.4839 6.87074C53.3087 7.69555 53.7211 8.89891 53.7211 10.4808V20H50.3696V10.9979C50.3696 10.1177 50.1357 9.47443 49.6679 9.06818C49.2001 8.65578 48.6276 8.44957 47.9505 8.44957C47.1442 8.44957 46.5133 8.70194 46.0578 9.20668C45.6084 9.70526 45.3838 10.3546 45.3838 11.1548V20H42.1061V10.8594C42.1061 10.1269 41.8845 9.54214 41.4413 9.10511C41.0043 8.66809 40.4318 8.44957 39.724 8.44957C39.2439 8.44957 38.8068 8.57268 38.4129 8.81889C38.019 9.05895 37.705 9.40057 37.4711 9.84375C37.2372 10.2808 37.1203 10.7917 37.1203 11.3764V20H33.778ZM56.0719 25.3182V5.81818H59.3589V8.16335H59.5528C59.7251 7.81865 59.9682 7.45241 60.2822 7.06463C60.5961 6.67069 61.0208 6.33523 61.5563 6.05824C62.0918 5.77509 62.7751 5.63352 63.606 5.63352C64.7017 5.63352 65.6896 5.91359 66.5698 6.47372C67.4562 7.0277 68.1579 7.84943 68.6749 8.93892C69.1981 10.0223 69.4597 11.3518 69.4597 12.9276C69.4597 14.4848 69.2043 15.8082 68.6934 16.8977C68.1825 17.9872 67.4869 18.8182 66.6067 19.3906C65.7265 19.9631 64.7294 20.2493 63.6153 20.2493C62.8028 20.2493 62.1288 20.1139 61.5932 19.843C61.0577 19.5722 60.6269 19.246 60.3006 18.8643C59.9806 18.4766 59.7313 18.1103 59.5528 17.7656H59.4143V25.3182H56.0719ZM59.3496 12.9091C59.3496 13.8262 59.4789 14.6295 59.7374 15.3189C60.0021 16.0083 60.3807 16.5469 60.8731 16.9347C61.3717 17.3163 61.9749 17.5071 62.6827 17.5071C63.4214 17.5071 64.04 17.3101 64.5386 16.9162C65.0371 16.5161 65.4126 15.9714 65.665 15.282C65.9235 14.5864 66.0528 13.7955 66.0528 12.9091C66.0528 12.0289 65.9266 11.2472 65.6742 10.5639C65.4218 9.88068 65.0464 9.34517 64.5478 8.95739C64.0492 8.5696 63.4275 8.37571 62.6827 8.37571C61.9687 8.37571 61.3624 8.56345 60.8638 8.93892C60.3653 9.31439 59.9867 9.84067 59.7282 10.5178C59.4758 11.1948 59.3496 11.992 59.3496 12.9091ZM75.3629 20.2862C74.4642 20.2862 73.6548 20.1262 72.9346 19.8061C72.2206 19.4799 71.6543 18.9998 71.2358 18.3658C70.8234 17.7318 70.6172 16.95 70.6172 16.0206C70.6172 15.2204 70.7649 14.5587 71.0603 14.0355C71.3558 13.5123 71.759 13.0938 72.2699 12.7798C72.7808 12.4659 73.3563 12.2289 73.9964 12.0689C74.6427 11.9027 75.3106 11.7827 76 11.7088C76.8309 11.6226 77.5049 11.5457 78.022 11.478C78.539 11.4041 78.9145 11.2933 79.1484 11.1456C79.3885 10.9917 79.5085 10.7547 79.5085 10.4347V10.3793C79.5085 9.68371 79.3023 9.14512 78.8899 8.76349C78.4775 8.38187 77.8835 8.19105 77.1079 8.19105C76.2893 8.19105 75.6399 8.36955 75.1598 8.72656C74.6858 9.08357 74.3657 9.50521 74.1995 9.99148L71.0788 9.54829C71.325 8.68655 71.7313 7.96638 72.2976 7.38778C72.8638 6.80303 73.5563 6.366 74.375 6.0767C75.1936 5.78125 76.0985 5.63352 77.0895 5.63352C77.7727 5.63352 78.4529 5.71354 79.1299 5.87358C79.807 6.03362 80.4256 6.29829 80.9858 6.66761C81.5459 7.03078 81.9952 7.52628 82.3338 8.15412C82.6785 8.78196 82.8508 9.56676 82.8508 10.5085V20H79.6378V18.0518H79.527C79.3238 18.4458 79.0376 18.8151 78.6683 19.1598C78.3051 19.4983 77.8466 19.7723 77.2926 19.9815C76.7448 20.1847 76.1015 20.2862 75.3629 20.2862ZM76.2308 17.8303C76.9017 17.8303 77.4834 17.6979 77.9758 17.4332C78.4683 17.1624 78.8468 16.8054 79.1115 16.3622C79.3823 15.919 79.5177 15.4358 79.5177 14.9126V13.2415C79.4131 13.3277 79.2346 13.4077 78.9822 13.4815C78.736 13.5554 78.459 13.62 78.1513 13.6754C77.8435 13.7308 77.5388 13.7801 77.2372 13.8232C76.9356 13.8662 76.674 13.9032 76.4524 13.9339C75.9538 14.0017 75.5076 14.1125 75.1136 14.2663C74.7197 14.4202 74.4088 14.6357 74.1811 14.9126C73.9533 15.1835 73.8395 15.5343 73.8395 15.9652C73.8395 16.5807 74.0641 17.0455 74.5135 17.3594C74.9628 17.6733 75.5353 17.8303 76.2308 17.8303ZM88.514 11.6903V20H85.1716V5.81818H88.3662V8.22798H88.5324C88.8587 7.43395 89.3788 6.80303 90.0928 6.33523C90.813 5.86742 91.7024 5.63352 92.7611 5.63352C93.7398 5.63352 94.5923 5.8428 95.3186 6.26136C96.0511 6.67992 96.6174 7.28622 97.0175 8.08026C97.4238 8.87429 97.6238 9.83759 97.6177 10.9702V20H94.2753V11.4872C94.2753 10.5393 94.0291 9.79758 93.5367 9.26207C93.0504 8.72656 92.3764 8.45881 91.5147 8.45881C90.9299 8.45881 90.4098 8.58807 89.9543 8.84659C89.505 9.09896 89.151 9.4652 88.8925 9.94531C88.6401 10.4254 88.514 11.0071 88.514 11.6903ZM101.545 25.3182C101.089 25.3182 100.668 25.2813 100.28 25.2074C99.8984 25.1397 99.5937 25.0597 99.366 24.9673L100.142 22.3636C100.628 22.5052 101.062 22.5729 101.443 22.5668C101.825 22.5606 102.161 22.4406 102.45 22.2067C102.745 21.9789 102.995 21.5973 103.198 21.0618L103.484 20.2955L98.3411 5.81818H101.887L105.155 16.5284H105.303L108.58 5.81818H112.135L106.457 21.7173C106.192 22.4683 105.841 23.1115 105.404 23.647C104.967 24.1887 104.432 24.6011 103.798 24.8842C103.17 25.1735 102.419 25.3182 101.545 25.3182ZM118.965 20V1.09091H122.39V17.1286H130.719V20H118.965ZM138.69 20.277C137.305 20.277 136.105 19.9723 135.089 19.3629C134.073 18.7536 133.286 17.901 132.725 16.8054C132.171 15.7098 131.894 14.4295 131.894 12.9645C131.894 11.4995 132.171 10.2161 132.725 9.11435C133.286 8.01255 134.073 7.15696 135.089 6.54759C136.105 5.93821 137.305 5.63352 138.69 5.63352C140.075 5.63352 141.275 5.93821 142.291 6.54759C143.306 7.15696 144.091 8.01255 144.645 9.11435C145.205 10.2161 145.485 11.4995 145.485 12.9645C145.485 14.4295 145.205 15.7098 144.645 16.8054C144.091 17.901 143.306 18.7536 142.291 19.3629C141.275 19.9723 140.075 20.277 138.69 20.277ZM138.708 17.5994C139.459 17.5994 140.087 17.3932 140.592 16.9808C141.097 16.5623 141.472 16.0021 141.718 15.3004C141.971 14.5987 142.097 13.817 142.097 12.9553C142.097 12.0874 141.971 11.3026 141.718 10.6009C141.472 9.89299 141.097 9.32978 140.592 8.91122C140.087 8.49266 139.459 8.28338 138.708 8.28338C137.939 8.28338 137.299 8.49266 136.788 8.91122C136.283 9.32978 135.905 9.89299 135.652 10.6009C135.406 11.3026 135.283 12.0874 135.283 12.9553C135.283 13.817 135.406 14.5987 135.652 15.3004C135.905 16.0021 136.283 16.5623 136.788 16.9808C137.299 17.3932 137.939 17.5994 138.708 17.5994ZM153.45 25.6136C152.25 25.6136 151.218 25.4505 150.357 25.1243C149.495 24.8042 148.803 24.3733 148.279 23.8317C147.756 23.29 147.393 22.6899 147.19 22.0312L150.2 21.3018C150.335 21.5788 150.532 21.8527 150.791 22.1236C151.049 22.4006 151.397 22.6283 151.834 22.8068C152.277 22.9915 152.834 23.0838 153.505 23.0838C154.453 23.0838 155.238 22.853 155.86 22.3913C156.481 21.9358 156.792 21.1849 156.792 20.1385V17.4517H156.626C156.454 17.7964 156.201 18.1503 155.869 18.5135C155.543 18.8767 155.109 19.1813 154.567 19.4276C154.031 19.6738 153.357 19.7969 152.545 19.7969C151.455 19.7969 150.468 19.5414 149.581 19.0305C148.701 18.5135 147.999 17.7441 147.476 16.7223C146.959 15.6944 146.701 14.4079 146.701 12.8629C146.701 11.3056 146.959 9.99148 147.476 8.92045C147.999 7.84328 148.704 7.0277 149.59 6.47372C150.477 5.91359 151.465 5.63352 152.554 5.63352C153.385 5.63352 154.068 5.77509 154.604 6.05824C155.146 6.33523 155.576 6.67069 155.897 7.06463C156.217 7.45241 156.46 7.81865 156.626 8.16335H156.811V5.81818H160.107V20.2308C160.107 21.4434 159.817 22.4467 159.239 23.2408C158.66 24.0348 157.869 24.6288 156.866 25.0227C155.863 25.4167 154.724 25.6136 153.45 25.6136ZM153.477 17.1747C154.185 17.1747 154.789 17.0024 155.287 16.6577C155.786 16.313 156.164 15.8175 156.423 15.1712C156.681 14.5249 156.811 13.7493 156.811 12.8445C156.811 11.9519 156.681 11.1702 156.423 10.4993C156.17 9.82836 155.795 9.30824 155.296 8.93892C154.804 8.56345 154.198 8.37571 153.477 8.37571C152.733 8.37571 152.111 8.5696 151.612 8.95739C151.114 9.34517 150.738 9.8776 150.486 10.5547C150.234 11.2256 150.107 11.9889 150.107 12.8445C150.107 13.7124 150.234 14.4725 150.486 15.125C150.745 15.7713 151.123 16.276 151.622 16.6392C152.126 16.9962 152.745 17.1747 153.477 17.1747ZM168.678 20.277C167.293 20.277 166.093 19.9723 165.077 19.3629C164.062 18.7536 163.274 17.901 162.714 16.8054C162.16 15.7098 161.883 14.4295 161.883 12.9645C161.883 11.4995 162.16 10.2161 162.714 9.11435C163.274 8.01255 164.062 7.15696 165.077 6.54759C166.093 5.93821 167.293 5.63352 168.678 5.63352C170.063 5.63352 171.263 5.93821 172.279 6.54759C173.295 7.15696 174.08 8.01255 174.634 9.11435C175.194 10.2161 175.474 11.4995 175.474 12.9645C175.474 14.4295 175.194 15.7098 174.634 16.8054C174.08 17.901 173.295 18.7536 172.279 19.3629C171.263 19.9723 170.063 20.277 168.678 20.277ZM168.697 17.5994C169.448 17.5994 170.076 17.3932 170.58 16.9808C171.085 16.5623 171.46 16.0021 171.707 15.3004C171.959 14.5987 172.085 13.817 172.085 12.9553C172.085 12.0874 171.959 11.3026 171.707 10.6009C171.46 9.89299 171.085 9.32978 170.58 8.91122C170.076 8.49266 169.448 8.28338 168.697 8.28338C167.927 8.28338 167.287 8.49266 166.776 8.91122C166.272 9.32978 165.893 9.89299 165.641 10.6009C165.394 11.3026 165.271 12.0874 165.271 12.9553C165.271 13.817 165.394 14.5987 165.641 15.3004C165.893 16.0021 166.272 16.5623 166.776 16.9808C167.287 17.3932 167.927 17.5994 168.697 17.5994Z" fill="#333333"/>
</svg>
